<?xml version="1.0" encoding="utf-8"?>
<!-- Generator: Adobe Illustrator 17.0.0, SVG Export Plug-In . SVG Version: 6.00 Build 0)  -->
<!DOCTYPE svg PUBLIC "-//W3C//DTD SVG 1.1//EN" "http://www.w3.org/Graphics/SVG/1.1/DTD/svg11.dtd">
<svg version="1.1" xmlns="http://www.w3.org/2000/svg" xmlns:xlink="http://www.w3.org/1999/xlink" x="0px" y="0px"
	 width="245.427px" height="137.729px" viewBox="0 0 245.427 137.729" enable-background="new 0 0 245.427 137.729"
	 xml:space="preserve">
<g id="Layer_2">
	<path d="M2.267,119.176c0,0-5.101-0.85,0-25.931c0,0,10.628-47.187,80.77-65.041c0,0,14.879-34.434,25.081-27.207
		c0,0-9.777,18.705,5.101,23.806c0,0,89.697,12.753,115.204,71.843c0,0,14.028-1.275,17.004,4.251c0,0-3.401-1.275-4.676,13.178
		c0,0-0.85,4.676-5.101,0.425c0,0,6.377,3.401-10.628,16.579c0,0-5.526,3.826-2.976,6.377c0,0-6.377,5.526,0-33.158
		c0,0-50.581-47.187-154.313-11.053c0,0,39.96,28.057-3.401,22.105l-18.705-10.628c0,0-33.158,21.68-36.134,17.004
		C9.494,121.727,1.842,125.978,2.267,119.176z"/>
</g>
<g id="Layer_3">
	<path fill="#FFFFFF" d="M18.177,103.168c0,0-5.631-11.261,14.747-20.646c0,0,1.073,3.218-3.754,10.323
		C29.17,92.845,25.416,102.9,18.177,103.168z"/>
	<path fill="#FFFFFF" d="M45.258,99.414c0,0-13.943-5.631-21.45,6.167c0,0-4.558,3.486-15.015,16.088
		c0,0,13.943-2.949,36.466-18.501V99.414z"/>
	<path fill="#FFFFFF" d="M169.134,75.282c0,0-14.479-28.154-48.263,5.094C120.871,80.377,168.598,78.768,169.134,75.282z"/>
</g>
<g id="Layer_4">
	<path fill="#6B6767" d="M104.907,16.27c0,0-11.507-4.603-15.727,2.301c0,0,7.288-18.028,18.412-17.645
		C107.592,0.927,102.989,11.667,104.907,16.27z"/>
	<path fill="#6B6767" d="M3.258,98.071c0,0,55.236-89.856,174.53-47.278c0,0-11.124-17.645-62.907-24.166
		c0,0-29.536,10.74-32.221,3.452C82.66,30.079,25.89,36.412,3.258,98.071z"/>
</g>
</svg>
